<mxfile host="Electron" modified="2024-05-17T14:15:11.533Z" agent="Mozilla/5.0 (Windows NT 10.0; Win64; x64) AppleWebKit/537.36 (KHTML, like Gecko) draw.io/24.2.5 Chrome/120.0.6099.109 Electron/28.1.0 Safari/537.36" etag="r9UKa5kqASwLdUXlHAu6" version="24.2.5" type="device" pages="3">
  <diagram name="Simple" id="a1rBbvxoKLE2_vEj7aSS">
    <mxGraphModel dx="1100" dy="902" grid="1" gridSize="10" guides="1" tooltips="1" connect="1" arrows="1" fold="1" page="1" pageScale="1" pageWidth="850" pageHeight="1100" math="1" shadow="0">
      <root>
        <mxCell id="a7IfMkl8jPFqEEjsk5ik-0" />
        <mxCell id="a7IfMkl8jPFqEEjsk5ik-1" parent="a7IfMkl8jPFqEEjsk5ik-0" />
        <mxCell id="a7IfMkl8jPFqEEjsk5ik-2" value="" style="shape=dataStorage;whiteSpace=wrap;html=1;fixedSize=1;comic=0;sketch=1;hachureGap=4;jiggle=0;curveFitting=1;sketchStyle=rough;fontFamily=Architects Daughter;fontSource=https%3A%2F%2Ffonts.googleapis.com%2Fcss%3Ffamily%3DArchitects%2BDaughter;fontSize=36;size=100;" parent="a7IfMkl8jPFqEEjsk5ik-1" vertex="1">
          <mxGeometry x="454" y="142" width="10" height="30" as="geometry" />
        </mxCell>
        <mxCell id="a7IfMkl8jPFqEEjsk5ik-3" value="" style="shape=dataStorage;whiteSpace=wrap;html=1;fixedSize=1;comic=0;sketch=1;hachureGap=4;jiggle=0;curveFitting=1;sketchStyle=rough;fontFamily=Architects Daughter;fontSource=https%3A%2F%2Ffonts.googleapis.com%2Fcss%3Ffamily%3DArchitects%2BDaughter;fontSize=36;size=100;flipH=1;" parent="a7IfMkl8jPFqEEjsk5ik-1" vertex="1">
          <mxGeometry x="484" y="142" width="10" height="30" as="geometry" />
        </mxCell>
        <mxCell id="a7IfMkl8jPFqEEjsk5ik-4" value="" style="ellipse;whiteSpace=wrap;html=1;aspect=fixed;sketch=1;hachureGap=4;jiggle=2;curveFitting=1;fontFamily=Architects Daughter;fontSource=https%3A%2F%2Ffonts.googleapis.com%2Fcss%3Ffamily%3DArchitects%2BDaughter;fontSize=36;sketchStyle=rough;" parent="a7IfMkl8jPFqEEjsk5ik-1" vertex="1">
          <mxGeometry x="15" y="39" width="207" height="207" as="geometry" />
        </mxCell>
        <mxCell id="a7IfMkl8jPFqEEjsk5ik-5" value="$$\Omega$$" style="text;html=1;strokeColor=none;fillColor=none;align=center;verticalAlign=middle;whiteSpace=wrap;rounded=0;sketch=1;hachureGap=4;jiggle=2;curveFitting=1;fontFamily=Architects Daughter;fontSource=https%3A%2F%2Ffonts.googleapis.com%2Fcss%3Ffamily%3DArchitects%2BDaughter;fontSize=46;" parent="a7IfMkl8jPFqEEjsk5ik-1" vertex="1">
          <mxGeometry x="55" y="53" width="90" height="42" as="geometry" />
        </mxCell>
        <mxCell id="a7IfMkl8jPFqEEjsk5ik-6" value="" style="ellipse;whiteSpace=wrap;html=1;aspect=fixed;hachureGap=4;fontFamily=Architects Daughter;fontSource=https%3A%2F%2Ffonts.googleapis.com%2Fcss%3Ffamily%3DArchitects%2BDaughter;fontSize=36;dashed=1;" parent="a7IfMkl8jPFqEEjsk5ik-1" vertex="1">
          <mxGeometry x="102" y="192" width="35" height="35" as="geometry" />
        </mxCell>
        <mxCell id="a7IfMkl8jPFqEEjsk5ik-7" value="$$\mathbb{R}$$" style="text;html=1;strokeColor=none;fillColor=none;align=center;verticalAlign=middle;whiteSpace=wrap;rounded=0;sketch=1;hachureGap=4;jiggle=2;curveFitting=1;fontFamily=Architects Daughter;fontSource=https%3A%2F%2Ffonts.googleapis.com%2Fcss%3Ffamily%3DArchitects%2BDaughter;fontSize=36;" parent="a7IfMkl8jPFqEEjsk5ik-1" vertex="1">
          <mxGeometry x="335" y="96" width="90" height="42" as="geometry" />
        </mxCell>
        <mxCell id="a7IfMkl8jPFqEEjsk5ik-8" value="" style="endArrow=none;html=1;hachureGap=4;simplification=1;sketchStyle=rough;fontFamily=Architects Daughter;fontSource=https%3A%2F%2Ffonts.googleapis.com%2Fcss%3Ffamily%3DArchitects%2BDaughter;fontSize=36;" parent="a7IfMkl8jPFqEEjsk5ik-1" target="a7IfMkl8jPFqEEjsk5ik-9" edge="1">
          <mxGeometry width="50" height="50" relative="1" as="geometry">
            <mxPoint x="335" y="156" as="sourcePoint" />
            <mxPoint x="525" y="156" as="targetPoint" />
          </mxGeometry>
        </mxCell>
        <mxCell id="a7IfMkl8jPFqEEjsk5ik-9" value="" style="shape=waypoint;sketch=0;size=6;pointerEvents=1;points=[];fillColor=none;resizable=0;rotatable=0;perimeter=centerPerimeter;snapToPoint=1;comic=0;hachureGap=4;jiggle=0;curveFitting=1;sketchStyle=rough;fontFamily=Architects Daughter;fontSource=https%3A%2F%2Ffonts.googleapis.com%2Fcss%3Ffamily%3DArchitects%2BDaughter;fontSize=36;" parent="a7IfMkl8jPFqEEjsk5ik-1" vertex="1">
          <mxGeometry x="370" y="146" width="20" height="20" as="geometry" />
        </mxCell>
        <mxCell id="a7IfMkl8jPFqEEjsk5ik-10" value="" style="curved=1;endArrow=classic;html=1;sketch=1;hachureGap=4;jiggle=3;curveFitting=1;simplification=0;sketchStyle=rough;fontFamily=Architects Daughter;fontSource=https%3A%2F%2Ffonts.googleapis.com%2Fcss%3Ffamily%3DArchitects%2BDaughter;fontSize=36;shadow=0;flowAnimation=0;orthogonal=0;enumerate=0;orthogonalLoop=0;enumerateValue=5;" parent="a7IfMkl8jPFqEEjsk5ik-1" source="a7IfMkl8jPFqEEjsk5ik-15" edge="1">
          <mxGeometry width="50" height="50" relative="1" as="geometry">
            <mxPoint x="175" y="66" as="sourcePoint" />
            <mxPoint x="335" y="146" as="targetPoint" />
            <Array as="points">
              <mxPoint x="265" y="76" />
            </Array>
          </mxGeometry>
        </mxCell>
        <mxCell id="a7IfMkl8jPFqEEjsk5ik-11" value="&lt;span style=&quot;&quot;&gt;$$\mathbb{P}$$&lt;/span&gt;" style="text;html=1;strokeColor=none;fillColor=none;align=center;verticalAlign=middle;whiteSpace=wrap;rounded=0;comic=0;sketch=1;hachureGap=4;jiggle=0;curveFitting=1;sketchStyle=rough;fontFamily=Architects Daughter;fontSource=https%3A%2F%2Ffonts.googleapis.com%2Fcss%3Ffamily%3DArchitects%2BDaughter;fontSize=36;" parent="a7IfMkl8jPFqEEjsk5ik-1" vertex="1">
          <mxGeometry x="125" y="329" width="50" height="30" as="geometry" />
        </mxCell>
        <mxCell id="a7IfMkl8jPFqEEjsk5ik-12" value="$$0$$" style="text;html=1;strokeColor=none;fillColor=none;align=center;verticalAlign=middle;whiteSpace=wrap;rounded=0;comic=0;sketch=1;hachureGap=4;jiggle=0;curveFitting=1;sketchStyle=rough;fontFamily=Architects Daughter;fontSource=https%3A%2F%2Ffonts.googleapis.com%2Fcss%3Ffamily%3DArchitects%2BDaughter;fontSize=36;" parent="a7IfMkl8jPFqEEjsk5ik-1" vertex="1">
          <mxGeometry x="365" y="166" width="30" height="30" as="geometry" />
        </mxCell>
        <mxCell id="a7IfMkl8jPFqEEjsk5ik-13" value="" style="endArrow=none;html=1;hachureGap=4;simplification=1;sketchStyle=rough;fontFamily=Architects Daughter;fontSource=https%3A%2F%2Ffonts.googleapis.com%2Fcss%3Ffamily%3DArchitects%2BDaughter;fontSize=36;startArrow=none;exitX=1.19;exitY=0.26;exitDx=0;exitDy=0;exitPerimeter=0;" parent="a7IfMkl8jPFqEEjsk5ik-1" source="a7IfMkl8jPFqEEjsk5ik-9" edge="1">
          <mxGeometry width="50" height="50" relative="1" as="geometry">
            <mxPoint x="455" y="156" as="sourcePoint" />
            <mxPoint x="525" y="156" as="targetPoint" />
          </mxGeometry>
        </mxCell>
        <mxCell id="a7IfMkl8jPFqEEjsk5ik-14" value="$$[0,1]$$" style="text;html=1;strokeColor=none;fillColor=none;align=center;verticalAlign=middle;whiteSpace=wrap;rounded=0;dashed=1;comic=0;sketch=0;hachureGap=4;jiggle=0;curveFitting=1;sketchStyle=rough;fontFamily=Architects Daughter;fontSource=https%3A%2F%2Ffonts.googleapis.com%2Fcss%3Ffamily%3DArchitects%2BDaughter;fontSize=36;" parent="a7IfMkl8jPFqEEjsk5ik-1" vertex="1">
          <mxGeometry x="245" y="379" width="90" height="30" as="geometry" />
        </mxCell>
        <mxCell id="a7IfMkl8jPFqEEjsk5ik-15" value="" style="shape=waypoint;sketch=0;size=6;pointerEvents=1;points=[];fillColor=none;resizable=0;rotatable=0;perimeter=centerPerimeter;snapToPoint=1;dashed=1;comic=0;hachureGap=4;jiggle=0;curveFitting=1;sketchStyle=rough;fontFamily=Architects Daughter;fontSource=https%3A%2F%2Ffonts.googleapis.com%2Fcss%3Ffamily%3DArchitects%2BDaughter;fontSize=36;" parent="a7IfMkl8jPFqEEjsk5ik-1" vertex="1">
          <mxGeometry x="175" y="102" width="20" height="20" as="geometry" />
        </mxCell>
        <mxCell id="a7IfMkl8jPFqEEjsk5ik-16" value="$$\omega$$" style="text;html=1;strokeColor=none;fillColor=none;align=center;verticalAlign=middle;whiteSpace=wrap;rounded=0;dashed=1;comic=0;sketch=0;hachureGap=4;jiggle=0;curveFitting=1;sketchStyle=rough;fontFamily=Architects Daughter;fontSource=https%3A%2F%2Ffonts.googleapis.com%2Fcss%3Ffamily%3DArchitects%2BDaughter;fontSize=24;" parent="a7IfMkl8jPFqEEjsk5ik-1" vertex="1">
          <mxGeometry x="145" y="108" width="50" height="30" as="geometry" />
        </mxCell>
        <mxCell id="a7IfMkl8jPFqEEjsk5ik-17" value="&lt;span style=&quot;font-size: 36px;&quot;&gt;$$X(\omega)$$&lt;/span&gt;" style="text;html=1;strokeColor=none;fillColor=none;align=center;verticalAlign=middle;whiteSpace=wrap;rounded=0;dashed=1;comic=0;sketch=0;hachureGap=4;jiggle=0;curveFitting=1;sketchStyle=rough;fontFamily=Architects Daughter;fontSource=https%3A%2F%2Ffonts.googleapis.com%2Fcss%3Ffamily%3DArchitects%2BDaughter;fontSize=24;" parent="a7IfMkl8jPFqEEjsk5ik-1" vertex="1">
          <mxGeometry x="255" y="66" width="90" height="30" as="geometry" />
        </mxCell>
        <mxCell id="a7IfMkl8jPFqEEjsk5ik-18" value="" style="curved=1;endArrow=classic;html=1;hachureGap=4;simplification=0;sketchStyle=rough;fontFamily=Architects Daughter;fontSource=https%3A%2F%2Ffonts.googleapis.com%2Fcss%3Ffamily%3DArchitects%2BDaughter;fontSize=36;shadow=0;flowAnimation=0;orthogonal=0;enumerate=0;orthogonalLoop=0;enumerateValue=5;sketch=1;curveFitting=1;jiggle=2;" parent="a7IfMkl8jPFqEEjsk5ik-1" edge="1">
          <mxGeometry width="50" height="50" relative="1" as="geometry">
            <mxPoint x="465" y="186" as="sourcePoint" />
            <mxPoint x="145" y="226" as="targetPoint" />
            <Array as="points">
              <mxPoint x="335" y="286" />
            </Array>
          </mxGeometry>
        </mxCell>
        <mxCell id="a7IfMkl8jPFqEEjsk5ik-19" value="&lt;span style=&quot;font-size: 36px;&quot;&gt;$$X^{-1}$$&lt;/span&gt;" style="text;html=1;strokeColor=none;fillColor=none;align=center;verticalAlign=middle;whiteSpace=wrap;rounded=0;dashed=1;comic=0;sketch=0;hachureGap=4;jiggle=0;curveFitting=1;sketchStyle=rough;fontFamily=Architects Daughter;fontSource=https%3A%2F%2Ffonts.googleapis.com%2Fcss%3Ffamily%3DArchitects%2BDaughter;fontSize=24;" parent="a7IfMkl8jPFqEEjsk5ik-1" vertex="1">
          <mxGeometry x="255" y="206" width="90" height="30" as="geometry" />
        </mxCell>
        <mxCell id="a7IfMkl8jPFqEEjsk5ik-20" value="$$G\in \mathcal{B}(\mathbb{R})$$" style="text;html=1;strokeColor=none;fillColor=none;align=center;verticalAlign=middle;whiteSpace=wrap;rounded=0;dashed=1;comic=0;sketch=0;hachureGap=4;jiggle=0;curveFitting=1;sketchStyle=rough;fontFamily=Architects Daughter;fontSource=https%3A%2F%2Ffonts.googleapis.com%2Fcss%3Ffamily%3DArchitects%2BDaughter;fontSize=24;" parent="a7IfMkl8jPFqEEjsk5ik-1" vertex="1">
          <mxGeometry x="454" y="108" width="60" height="30" as="geometry" />
        </mxCell>
        <mxCell id="a7IfMkl8jPFqEEjsk5ik-21" value="$$X^{-1}[G]\in\mathcal{F}$$" style="text;html=1;strokeColor=none;fillColor=none;align=center;verticalAlign=middle;whiteSpace=wrap;rounded=0;dashed=1;comic=0;sketch=0;hachureGap=4;jiggle=0;curveFitting=1;sketchStyle=rough;fontFamily=Architects Daughter;fontSource=https%3A%2F%2Ffonts.googleapis.com%2Fcss%3Ffamily%3DArchitects%2BDaughter;fontSize=24;" parent="a7IfMkl8jPFqEEjsk5ik-1" vertex="1">
          <mxGeometry x="95" y="159" width="58" height="30" as="geometry" />
        </mxCell>
        <mxCell id="a7IfMkl8jPFqEEjsk5ik-22" value="" style="curved=1;endArrow=classic;html=1;hachureGap=4;simplification=0;sketchStyle=rough;fontFamily=Architects Daughter;fontSource=https%3A%2F%2Ffonts.googleapis.com%2Fcss%3Ffamily%3DArchitects%2BDaughter;fontSize=36;shadow=0;flowAnimation=0;orthogonal=0;enumerate=0;orthogonalLoop=0;enumerateValue=5;sketch=1;curveFitting=1;jiggle=2;" parent="a7IfMkl8jPFqEEjsk5ik-1" edge="1">
          <mxGeometry width="50" height="50" relative="1" as="geometry">
            <mxPoint x="475" y="189" as="sourcePoint" />
            <mxPoint x="336" y="376" as="targetPoint" />
            <Array as="points">
              <mxPoint x="445" y="296" />
            </Array>
          </mxGeometry>
        </mxCell>
        <mxCell id="a7IfMkl8jPFqEEjsk5ik-23" value="&lt;span style=&quot;&quot;&gt;$$\mu=\mathbb{P}\circ X^{-1}$$&lt;/span&gt;" style="text;html=1;strokeColor=none;fillColor=none;align=center;verticalAlign=middle;whiteSpace=wrap;rounded=0;comic=0;sketch=1;hachureGap=4;jiggle=0;curveFitting=1;sketchStyle=rough;fontFamily=Architects Daughter;fontSource=https%3A%2F%2Ffonts.googleapis.com%2Fcss%3Ffamily%3DArchitects%2BDaughter;fontSize=36;rotation=0;" parent="a7IfMkl8jPFqEEjsk5ik-1" vertex="1">
          <mxGeometry x="444" y="349" width="50" height="30" as="geometry" />
        </mxCell>
        <mxCell id="a7IfMkl8jPFqEEjsk5ik-24" value="" style="curved=1;endArrow=classic;html=1;hachureGap=4;simplification=0;sketchStyle=rough;fontFamily=Architects Daughter;fontSource=https%3A%2F%2Ffonts.googleapis.com%2Fcss%3Ffamily%3DArchitects%2BDaughter;fontSize=36;shadow=0;flowAnimation=0;orthogonal=0;enumerate=0;orthogonalLoop=0;enumerateValue=5;sketch=1;curveFitting=1;jiggle=2;" parent="a7IfMkl8jPFqEEjsk5ik-1" edge="1">
          <mxGeometry width="50" height="50" relative="1" as="geometry">
            <mxPoint x="125" y="239" as="sourcePoint" />
            <mxPoint x="236" y="376" as="targetPoint" />
            <Array as="points">
              <mxPoint x="175" y="346" />
            </Array>
          </mxGeometry>
        </mxCell>
        <mxCell id="a7IfMkl8jPFqEEjsk5ik-25" value="&lt;span style=&quot;font-size: 24px;&quot;&gt;$$X:\Omega \rightarrow \mathbb{R}$$&lt;/span&gt;" style="text;html=1;strokeColor=none;fillColor=none;align=center;verticalAlign=middle;whiteSpace=wrap;rounded=0;dashed=1;comic=0;sketch=0;hachureGap=4;jiggle=0;curveFitting=1;sketchStyle=rough;fontFamily=Architects Daughter;fontSource=https%3A%2F%2Ffonts.googleapis.com%2Fcss%3Ffamily%3DArchitects%2BDaughter;fontSize=24;" parent="a7IfMkl8jPFqEEjsk5ik-1" vertex="1">
          <mxGeometry x="613" y="122" width="113" height="30" as="geometry" />
        </mxCell>
        <mxCell id="rF4b8Gya1k10AYrxUdml-1" value="&lt;span style=&quot;font-size: 24px;&quot;&gt;$$\mathbb{P}:\mathcal{F}\rightarrow[0,1]$$&lt;/span&gt;" style="text;html=1;strokeColor=none;fillColor=none;align=center;verticalAlign=middle;whiteSpace=wrap;rounded=0;comic=0;sketch=1;hachureGap=4;jiggle=0;curveFitting=1;sketchStyle=rough;fontFamily=Architects Daughter;fontSource=https%3A%2F%2Ffonts.googleapis.com%2Fcss%3Ffamily%3DArchitects%2BDaughter;fontSize=24;" parent="a7IfMkl8jPFqEEjsk5ik-1" vertex="1">
          <mxGeometry x="613" y="278" width="143" height="30" as="geometry" />
        </mxCell>
        <mxCell id="rF4b8Gya1k10AYrxUdml-3" value="Details" style="text;html=1;align=center;verticalAlign=middle;resizable=0;points=[];autosize=1;strokeColor=none;fillColor=none;fontSize=46;fontFamily=Architects Daughter;sketch=1;hachureGap=4;jiggle=2;curveFitting=1;fontSource=https%3A%2F%2Ffonts.googleapis.com%2Fcss%3Ffamily%3DArchitects%2BDaughter;" parent="a7IfMkl8jPFqEEjsk5ik-1" vertex="1">
          <mxGeometry x="604.5" y="38" width="160" height="70" as="geometry" />
        </mxCell>
        <mxCell id="rF4b8Gya1k10AYrxUdml-6" value="$$\mathcal{F}=\sigma(\mathcal{E})\textrm{,&lt;br&gt;&amp;nbsp;}\mathcal{E}\subseteq\mathcal{P}(\Omega)&lt;br style=&quot;font-size: 24px;&quot;&gt;$$" style="text;html=1;strokeColor=none;fillColor=none;align=center;verticalAlign=middle;whiteSpace=wrap;rounded=0;dashed=1;comic=0;sketch=0;hachureGap=4;jiggle=0;curveFitting=1;sketchStyle=rough;fontFamily=Architects Daughter;fontSource=https%3A%2F%2Ffonts.googleapis.com%2Fcss%3Ffamily%3DArchitects%2BDaughter;fontSize=24;" parent="a7IfMkl8jPFqEEjsk5ik-1" vertex="1">
          <mxGeometry x="613" y="200" width="210" height="30" as="geometry" />
        </mxCell>
        <mxCell id="rF4b8Gya1k10AYrxUdml-7" value="&lt;span style=&quot;font-size: 24px;&quot;&gt;$$\mu:\mathcal{B}(\mathbb{R})\rightarrow[0,1]$$&lt;/span&gt;" style="text;html=1;strokeColor=none;fillColor=none;align=center;verticalAlign=middle;whiteSpace=wrap;rounded=0;comic=0;sketch=1;hachureGap=4;jiggle=0;curveFitting=1;sketchStyle=rough;fontFamily=Architects Daughter;fontSource=https%3A%2F%2Ffonts.googleapis.com%2Fcss%3Ffamily%3DArchitects%2BDaughter;fontSize=24;" parent="a7IfMkl8jPFqEEjsk5ik-1" vertex="1">
          <mxGeometry x="613" y="161" width="173" height="30" as="geometry" />
        </mxCell>
        <mxCell id="pEFme3Tu46TbnYDbclTy-1" value="" style="whiteSpace=wrap;html=1;hachureGap=4;fontFamily=Architects Daughter;fontSource=https%3A%2F%2Ffonts.googleapis.com%2Fcss%3Ffamily%3DArchitects%2BDaughter;shadow=0;gradientColor=none;fillColor=none;" parent="a7IfMkl8jPFqEEjsk5ik-1" vertex="1">
          <mxGeometry x="600.5" y="39.5" width="235" height="289.5" as="geometry" />
        </mxCell>
        <mxCell id="AteLsQqqIlWJIt-vAWrX-1" value="" style="endArrow=none;html=1;rounded=0;sketch=1;hachureGap=4;jiggle=2;curveFitting=1;fontFamily=Architects Daughter;fontSource=https%3A%2F%2Ffonts.googleapis.com%2Fcss%3Ffamily%3DArchitects%2BDaughter;opacity=0;" edge="1" parent="a7IfMkl8jPFqEEjsk5ik-1">
          <mxGeometry width="50" height="50" relative="1" as="geometry">
            <mxPoint x="341" y="10" as="sourcePoint" />
            <mxPoint x="464" y="10" as="targetPoint" />
          </mxGeometry>
        </mxCell>
        <mxCell id="sEJtc5CQU6XpW4ow1pbG-0" value="" style="endArrow=none;html=1;rounded=0;sketch=1;hachureGap=4;jiggle=2;curveFitting=1;fontFamily=Architects Daughter;fontSource=https%3A%2F%2Ffonts.googleapis.com%2Fcss%3Ffamily%3DArchitects%2BDaughter;opacity=0;" edge="1" parent="a7IfMkl8jPFqEEjsk5ik-1">
          <mxGeometry width="50" height="50" relative="1" as="geometry">
            <mxPoint x="318.5" y="440" as="sourcePoint" />
            <mxPoint x="441.5" y="440" as="targetPoint" />
          </mxGeometry>
        </mxCell>
        <mxCell id="3Wn9W2fnLtt-LZYKGciY-0" value="&lt;span style=&quot;font-size: 24px;&quot;&gt;$$X^{-1}:\mathcal{B}(\mathbb{R}) \rightarrow \mathcal{F}$$&lt;/span&gt;" style="text;html=1;strokeColor=none;fillColor=none;align=center;verticalAlign=middle;whiteSpace=wrap;rounded=0;dashed=1;comic=0;sketch=0;hachureGap=4;jiggle=0;curveFitting=1;sketchStyle=rough;fontFamily=Architects Daughter;fontSource=https%3A%2F%2Ffonts.googleapis.com%2Fcss%3Ffamily%3DArchitects%2BDaughter;fontSize=24;" vertex="1" parent="a7IfMkl8jPFqEEjsk5ik-1">
          <mxGeometry x="613" y="239" width="173" height="30" as="geometry" />
        </mxCell>
      </root>
    </mxGraphModel>
  </diagram>
  <diagram id="zCPmsTObTlJZM0yMRsSy" name="Composition">
    <mxGraphModel dx="1950" dy="2002" grid="1" gridSize="10" guides="1" tooltips="1" connect="1" arrows="1" fold="1" page="1" pageScale="1" pageWidth="850" pageHeight="1100" math="1" shadow="0">
      <root>
        <mxCell id="0" />
        <mxCell id="1" parent="0" />
        <mxCell id="27" value="" style="shape=dataStorage;whiteSpace=wrap;html=1;fixedSize=1;comic=0;sketch=1;hachureGap=4;jiggle=0;curveFitting=1;sketchStyle=rough;fontFamily=Architects Daughter;fontSource=https%3A%2F%2Ffonts.googleapis.com%2Fcss%3Ffamily%3DArchitects%2BDaughter;fontSize=36;size=100;" parent="1" vertex="1">
          <mxGeometry x="452" y="206" width="10" height="30" as="geometry" />
        </mxCell>
        <mxCell id="29" value="" style="shape=dataStorage;whiteSpace=wrap;html=1;fixedSize=1;comic=0;sketch=1;hachureGap=4;jiggle=0;curveFitting=1;sketchStyle=rough;fontFamily=Architects Daughter;fontSource=https%3A%2F%2Ffonts.googleapis.com%2Fcss%3Ffamily%3DArchitects%2BDaughter;fontSize=36;size=100;flipH=1;" parent="1" vertex="1">
          <mxGeometry x="482" y="206" width="10" height="30" as="geometry" />
        </mxCell>
        <mxCell id="2" value="" style="ellipse;whiteSpace=wrap;html=1;aspect=fixed;sketch=1;hachureGap=4;jiggle=2;curveFitting=1;fontFamily=Architects Daughter;fontSource=https%3A%2F%2Ffonts.googleapis.com%2Fcss%3Ffamily%3DArchitects%2BDaughter;fontSize=36;sketchStyle=rough;" parent="1" vertex="1">
          <mxGeometry x="13" y="103" width="207" height="207" as="geometry" />
        </mxCell>
        <mxCell id="3" value="$$\Omega$$" style="text;html=1;strokeColor=none;fillColor=none;align=center;verticalAlign=middle;whiteSpace=wrap;rounded=0;sketch=1;hachureGap=4;jiggle=2;curveFitting=1;fontFamily=Architects Daughter;fontSource=https%3A%2F%2Ffonts.googleapis.com%2Fcss%3Ffamily%3DArchitects%2BDaughter;fontSize=46;" parent="1" vertex="1">
          <mxGeometry x="53" y="118" width="90" height="42" as="geometry" />
        </mxCell>
        <mxCell id="8" value="" style="ellipse;whiteSpace=wrap;html=1;aspect=fixed;hachureGap=4;fontFamily=Architects Daughter;fontSource=https%3A%2F%2Ffonts.googleapis.com%2Fcss%3Ffamily%3DArchitects%2BDaughter;fontSize=36;dashed=1;" parent="1" vertex="1">
          <mxGeometry x="100" y="256" width="35" height="35" as="geometry" />
        </mxCell>
        <mxCell id="15" value="$$\mathbb{R}$$" style="text;html=1;strokeColor=none;fillColor=none;align=center;verticalAlign=middle;whiteSpace=wrap;rounded=0;sketch=1;hachureGap=4;jiggle=2;curveFitting=1;fontFamily=Architects Daughter;fontSource=https%3A%2F%2Ffonts.googleapis.com%2Fcss%3Ffamily%3DArchitects%2BDaughter;fontSize=36;" parent="1" vertex="1">
          <mxGeometry x="333" y="160" width="90" height="42" as="geometry" />
        </mxCell>
        <mxCell id="18" value="" style="endArrow=none;html=1;hachureGap=4;simplification=1;sketchStyle=rough;fontFamily=Architects Daughter;fontSource=https%3A%2F%2Ffonts.googleapis.com%2Fcss%3Ffamily%3DArchitects%2BDaughter;fontSize=36;" parent="1" target="17" edge="1">
          <mxGeometry width="50" height="50" relative="1" as="geometry">
            <mxPoint x="333" y="220" as="sourcePoint" />
            <mxPoint x="523" y="220" as="targetPoint" />
          </mxGeometry>
        </mxCell>
        <mxCell id="17" value="" style="shape=waypoint;sketch=0;size=6;pointerEvents=1;points=[];fillColor=none;resizable=0;rotatable=0;perimeter=centerPerimeter;snapToPoint=1;comic=0;hachureGap=4;jiggle=0;curveFitting=1;sketchStyle=rough;fontFamily=Architects Daughter;fontSource=https%3A%2F%2Ffonts.googleapis.com%2Fcss%3Ffamily%3DArchitects%2BDaughter;fontSize=36;" parent="1" vertex="1">
          <mxGeometry x="368" y="210" width="20" height="20" as="geometry" />
        </mxCell>
        <mxCell id="20" value="" style="curved=1;endArrow=classic;html=1;sketch=1;hachureGap=4;jiggle=3;curveFitting=1;simplification=0;sketchStyle=rough;fontFamily=Architects Daughter;fontSource=https%3A%2F%2Ffonts.googleapis.com%2Fcss%3Ffamily%3DArchitects%2BDaughter;fontSize=36;shadow=0;flowAnimation=0;orthogonal=0;enumerate=0;orthogonalLoop=0;enumerateValue=5;" parent="1" source="34" edge="1">
          <mxGeometry width="50" height="50" relative="1" as="geometry">
            <mxPoint x="173" y="130" as="sourcePoint" />
            <mxPoint x="333" y="210" as="targetPoint" />
            <Array as="points">
              <mxPoint x="263" y="140" />
            </Array>
          </mxGeometry>
        </mxCell>
        <mxCell id="24" value="&lt;span style=&quot;&quot;&gt;$$\mathbb{P}$$&lt;/span&gt;" style="text;html=1;strokeColor=none;fillColor=none;align=center;verticalAlign=middle;whiteSpace=wrap;rounded=0;comic=0;sketch=1;hachureGap=4;jiggle=0;curveFitting=1;sketchStyle=rough;fontFamily=Architects Daughter;fontSource=https%3A%2F%2Ffonts.googleapis.com%2Fcss%3Ffamily%3DArchitects%2BDaughter;fontSize=36;" parent="1" vertex="1">
          <mxGeometry x="123" y="393" width="50" height="30" as="geometry" />
        </mxCell>
        <mxCell id="26" value="$$0$$" style="text;html=1;strokeColor=none;fillColor=none;align=center;verticalAlign=middle;whiteSpace=wrap;rounded=0;comic=0;sketch=1;hachureGap=4;jiggle=0;curveFitting=1;sketchStyle=rough;fontFamily=Architects Daughter;fontSource=https%3A%2F%2Ffonts.googleapis.com%2Fcss%3Ffamily%3DArchitects%2BDaughter;fontSize=36;" parent="1" vertex="1">
          <mxGeometry x="363" y="230" width="30" height="30" as="geometry" />
        </mxCell>
        <mxCell id="30" value="" style="endArrow=none;html=1;hachureGap=4;simplification=1;sketchStyle=rough;fontFamily=Architects Daughter;fontSource=https%3A%2F%2Ffonts.googleapis.com%2Fcss%3Ffamily%3DArchitects%2BDaughter;fontSize=36;startArrow=none;exitX=1.19;exitY=0.26;exitDx=0;exitDy=0;exitPerimeter=0;" parent="1" source="17" edge="1">
          <mxGeometry width="50" height="50" relative="1" as="geometry">
            <mxPoint x="453" y="220" as="sourcePoint" />
            <mxPoint x="523" y="220" as="targetPoint" />
          </mxGeometry>
        </mxCell>
        <mxCell id="32" value="$$[0,1]$$" style="text;html=1;strokeColor=none;fillColor=none;align=center;verticalAlign=middle;whiteSpace=wrap;rounded=0;dashed=1;comic=0;sketch=0;hachureGap=4;jiggle=0;curveFitting=1;sketchStyle=rough;fontFamily=Architects Daughter;fontSource=https%3A%2F%2Ffonts.googleapis.com%2Fcss%3Ffamily%3DArchitects%2BDaughter;fontSize=36;" parent="1" vertex="1">
          <mxGeometry x="243" y="443" width="90" height="30" as="geometry" />
        </mxCell>
        <mxCell id="34" value="" style="shape=waypoint;sketch=0;size=6;pointerEvents=1;points=[];fillColor=none;resizable=0;rotatable=0;perimeter=centerPerimeter;snapToPoint=1;dashed=1;comic=0;hachureGap=4;jiggle=0;curveFitting=1;sketchStyle=rough;fontFamily=Architects Daughter;fontSource=https%3A%2F%2Ffonts.googleapis.com%2Fcss%3Ffamily%3DArchitects%2BDaughter;fontSize=36;" parent="1" vertex="1">
          <mxGeometry x="173" y="166" width="20" height="20" as="geometry" />
        </mxCell>
        <mxCell id="36" value="$$\omega$$" style="text;html=1;strokeColor=none;fillColor=none;align=center;verticalAlign=middle;whiteSpace=wrap;rounded=0;dashed=1;comic=0;sketch=0;hachureGap=4;jiggle=0;curveFitting=1;sketchStyle=rough;fontFamily=Architects Daughter;fontSource=https%3A%2F%2Ffonts.googleapis.com%2Fcss%3Ffamily%3DArchitects%2BDaughter;fontSize=24;" parent="1" vertex="1">
          <mxGeometry x="143" y="172" width="50" height="30" as="geometry" />
        </mxCell>
        <mxCell id="38" value="&lt;span style=&quot;font-size: 36px;&quot;&gt;$$X(\omega)$$&lt;/span&gt;" style="text;html=1;strokeColor=none;fillColor=none;align=center;verticalAlign=middle;whiteSpace=wrap;rounded=0;dashed=1;comic=0;sketch=0;hachureGap=4;jiggle=0;curveFitting=1;sketchStyle=rough;fontFamily=Architects Daughter;fontSource=https%3A%2F%2Ffonts.googleapis.com%2Fcss%3Ffamily%3DArchitects%2BDaughter;fontSize=24;" parent="1" vertex="1">
          <mxGeometry x="253" y="130" width="90" height="30" as="geometry" />
        </mxCell>
        <mxCell id="39" value="" style="curved=1;endArrow=classic;html=1;hachureGap=4;simplification=0;sketchStyle=rough;fontFamily=Architects Daughter;fontSource=https%3A%2F%2Ffonts.googleapis.com%2Fcss%3Ffamily%3DArchitects%2BDaughter;fontSize=36;shadow=0;flowAnimation=0;orthogonal=0;enumerate=0;orthogonalLoop=0;enumerateValue=5;sketch=1;curveFitting=1;jiggle=2;" parent="1" edge="1">
          <mxGeometry width="50" height="50" relative="1" as="geometry">
            <mxPoint x="463" y="250" as="sourcePoint" />
            <mxPoint x="143" y="290" as="targetPoint" />
            <Array as="points">
              <mxPoint x="333" y="350" />
            </Array>
          </mxGeometry>
        </mxCell>
        <mxCell id="40" value="&lt;span style=&quot;font-size: 36px;&quot;&gt;$$X^{-1}$$&lt;/span&gt;" style="text;html=1;strokeColor=none;fillColor=none;align=center;verticalAlign=middle;whiteSpace=wrap;rounded=0;dashed=1;comic=0;sketch=0;hachureGap=4;jiggle=0;curveFitting=1;sketchStyle=rough;fontFamily=Architects Daughter;fontSource=https%3A%2F%2Ffonts.googleapis.com%2Fcss%3Ffamily%3DArchitects%2BDaughter;fontSize=24;" parent="1" vertex="1">
          <mxGeometry x="253" y="270" width="90" height="30" as="geometry" />
        </mxCell>
        <mxCell id="42" value="$$G\in \mathcal{B}(\mathbb{R})$$" style="text;html=1;strokeColor=none;fillColor=none;align=center;verticalAlign=middle;whiteSpace=wrap;rounded=0;dashed=1;comic=0;sketch=0;hachureGap=4;jiggle=0;curveFitting=1;sketchStyle=rough;fontFamily=Architects Daughter;fontSource=https%3A%2F%2Ffonts.googleapis.com%2Fcss%3Ffamily%3DArchitects%2BDaughter;fontSize=24;" parent="1" vertex="1">
          <mxGeometry x="452" y="172" width="60" height="30" as="geometry" />
        </mxCell>
        <mxCell id="43" value="$$X^{-1}[G]\in\mathcal{F}$$" style="text;html=1;strokeColor=none;fillColor=none;align=center;verticalAlign=middle;whiteSpace=wrap;rounded=0;dashed=1;comic=0;sketch=0;hachureGap=4;jiggle=0;curveFitting=1;sketchStyle=rough;fontFamily=Architects Daughter;fontSource=https%3A%2F%2Ffonts.googleapis.com%2Fcss%3Ffamily%3DArchitects%2BDaughter;fontSize=24;" parent="1" vertex="1">
          <mxGeometry x="93" y="223" width="58" height="30" as="geometry" />
        </mxCell>
        <mxCell id="46" value="" style="curved=1;endArrow=classic;html=1;hachureGap=4;simplification=0;sketchStyle=rough;fontFamily=Architects Daughter;fontSource=https%3A%2F%2Ffonts.googleapis.com%2Fcss%3Ffamily%3DArchitects%2BDaughter;fontSize=36;shadow=0;flowAnimation=0;orthogonal=0;enumerate=0;orthogonalLoop=0;enumerateValue=5;sketch=1;curveFitting=1;jiggle=2;" parent="1" edge="1">
          <mxGeometry width="50" height="50" relative="1" as="geometry">
            <mxPoint x="473" y="253" as="sourcePoint" />
            <mxPoint x="334" y="440" as="targetPoint" />
            <Array as="points">
              <mxPoint x="443" y="360" />
            </Array>
          </mxGeometry>
        </mxCell>
        <mxCell id="47" value="&lt;span style=&quot;&quot;&gt;$$\mu_X=\mathbb{P}\circ X^{-1}$$&lt;/span&gt;" style="text;html=1;strokeColor=none;fillColor=none;align=center;verticalAlign=middle;whiteSpace=wrap;rounded=0;comic=0;sketch=1;hachureGap=4;jiggle=0;curveFitting=1;sketchStyle=rough;fontFamily=Architects Daughter;fontSource=https%3A%2F%2Ffonts.googleapis.com%2Fcss%3Ffamily%3DArchitects%2BDaughter;fontSize=36;rotation=-45;" parent="1" vertex="1">
          <mxGeometry x="363" y="340" width="50" height="30" as="geometry" />
        </mxCell>
        <mxCell id="48" value="" style="curved=1;endArrow=classic;html=1;hachureGap=4;simplification=0;sketchStyle=rough;fontFamily=Architects Daughter;fontSource=https%3A%2F%2Ffonts.googleapis.com%2Fcss%3Ffamily%3DArchitects%2BDaughter;fontSize=36;shadow=0;flowAnimation=0;orthogonal=0;enumerate=0;orthogonalLoop=0;enumerateValue=5;sketch=1;curveFitting=1;jiggle=2;" parent="1" edge="1">
          <mxGeometry width="50" height="50" relative="1" as="geometry">
            <mxPoint x="123" y="303" as="sourcePoint" />
            <mxPoint x="234" y="440" as="targetPoint" />
            <Array as="points">
              <mxPoint x="173" y="410" />
            </Array>
          </mxGeometry>
        </mxCell>
        <mxCell id="51" value="" style="shape=dataStorage;whiteSpace=wrap;html=1;fixedSize=1;comic=0;sketch=1;hachureGap=4;jiggle=0;curveFitting=1;sketchStyle=rough;fontFamily=Architects Daughter;fontSource=https%3A%2F%2Ffonts.googleapis.com%2Fcss%3Ffamily%3DArchitects%2BDaughter;fontSize=36;size=100;" parent="1" vertex="1">
          <mxGeometry x="758" y="205" width="10" height="30" as="geometry" />
        </mxCell>
        <mxCell id="52" value="" style="shape=dataStorage;whiteSpace=wrap;html=1;fixedSize=1;comic=0;sketch=1;hachureGap=4;jiggle=0;curveFitting=1;sketchStyle=rough;fontFamily=Architects Daughter;fontSource=https%3A%2F%2Ffonts.googleapis.com%2Fcss%3Ffamily%3DArchitects%2BDaughter;fontSize=36;size=100;flipH=1;" parent="1" vertex="1">
          <mxGeometry x="788" y="205" width="10" height="30" as="geometry" />
        </mxCell>
        <mxCell id="53" value="$$\mathbb{R}$$" style="text;html=1;strokeColor=none;fillColor=none;align=center;verticalAlign=middle;whiteSpace=wrap;rounded=0;sketch=1;hachureGap=4;jiggle=2;curveFitting=1;fontFamily=Architects Daughter;fontSource=https%3A%2F%2Ffonts.googleapis.com%2Fcss%3Ffamily%3DArchitects%2BDaughter;fontSize=36;" parent="1" vertex="1">
          <mxGeometry x="668" y="160" width="90" height="42" as="geometry" />
        </mxCell>
        <mxCell id="54" value="" style="endArrow=none;html=1;hachureGap=4;simplification=1;sketchStyle=rough;fontFamily=Architects Daughter;fontSource=https%3A%2F%2Ffonts.googleapis.com%2Fcss%3Ffamily%3DArchitects%2BDaughter;fontSize=36;" parent="1" target="55" edge="1">
          <mxGeometry width="50" height="50" relative="1" as="geometry">
            <mxPoint x="673" y="220" as="sourcePoint" />
            <mxPoint x="863" y="220" as="targetPoint" />
          </mxGeometry>
        </mxCell>
        <mxCell id="55" value="" style="shape=waypoint;sketch=0;size=6;pointerEvents=1;points=[];fillColor=none;resizable=0;rotatable=0;perimeter=centerPerimeter;snapToPoint=1;comic=0;hachureGap=4;jiggle=0;curveFitting=1;sketchStyle=rough;fontFamily=Architects Daughter;fontSource=https%3A%2F%2Ffonts.googleapis.com%2Fcss%3Ffamily%3DArchitects%2BDaughter;fontSize=36;" parent="1" vertex="1">
          <mxGeometry x="703" y="210" width="20" height="20" as="geometry" />
        </mxCell>
        <mxCell id="56" value="$$0$$" style="text;html=1;strokeColor=none;fillColor=none;align=center;verticalAlign=middle;whiteSpace=wrap;rounded=0;comic=0;sketch=1;hachureGap=4;jiggle=0;curveFitting=1;sketchStyle=rough;fontFamily=Architects Daughter;fontSource=https%3A%2F%2Ffonts.googleapis.com%2Fcss%3Ffamily%3DArchitects%2BDaughter;fontSize=36;" parent="1" vertex="1">
          <mxGeometry x="698" y="230" width="30" height="30" as="geometry" />
        </mxCell>
        <mxCell id="57" value="" style="endArrow=none;html=1;hachureGap=4;simplification=1;sketchStyle=rough;fontFamily=Architects Daughter;fontSource=https%3A%2F%2Ffonts.googleapis.com%2Fcss%3Ffamily%3DArchitects%2BDaughter;fontSize=36;startArrow=none;exitX=1.19;exitY=0.26;exitDx=0;exitDy=0;exitPerimeter=0;entryX=1;entryY=1.6;entryDx=0;entryDy=0;entryPerimeter=0;" parent="1" source="55" target="58" edge="1">
          <mxGeometry width="50" height="50" relative="1" as="geometry">
            <mxPoint x="787" y="220" as="sourcePoint" />
            <mxPoint x="857" y="220" as="targetPoint" />
          </mxGeometry>
        </mxCell>
        <mxCell id="58" value="$$G\in \mathcal{B}(\mathbb{R})$$" style="text;html=1;strokeColor=none;fillColor=none;align=center;verticalAlign=middle;whiteSpace=wrap;rounded=0;dashed=1;comic=0;sketch=0;hachureGap=4;jiggle=0;curveFitting=1;sketchStyle=rough;fontFamily=Architects Daughter;fontSource=https%3A%2F%2Ffonts.googleapis.com%2Fcss%3Ffamily%3DArchitects%2BDaughter;fontSize=24;" parent="1" vertex="1">
          <mxGeometry x="768" y="172" width="60" height="30" as="geometry" />
        </mxCell>
        <mxCell id="59" value="" style="curved=1;endArrow=classic;html=1;sketch=1;hachureGap=4;jiggle=3;curveFitting=1;simplification=0;sketchStyle=rough;fontFamily=Architects Daughter;fontSource=https%3A%2F%2Ffonts.googleapis.com%2Fcss%3Ffamily%3DArchitects%2BDaughter;fontSize=36;shadow=0;flowAnimation=0;orthogonal=0;enumerate=0;orthogonalLoop=0;enumerateValue=5;" parent="1" edge="1">
          <mxGeometry width="50" height="50" relative="1" as="geometry">
            <mxPoint x="541" y="216" as="sourcePoint" />
            <mxPoint x="673" y="213" as="targetPoint" />
            <Array as="points">
              <mxPoint x="609" y="156" />
            </Array>
          </mxGeometry>
        </mxCell>
        <mxCell id="60" value="&lt;span style=&quot;font-size: 36px;&quot;&gt;$$f(\cdot)$$&lt;/span&gt;" style="text;html=1;strokeColor=none;fillColor=none;align=center;verticalAlign=middle;whiteSpace=wrap;rounded=0;dashed=1;comic=0;sketch=0;hachureGap=4;jiggle=0;curveFitting=1;sketchStyle=rough;fontFamily=Architects Daughter;fontSource=https%3A%2F%2Ffonts.googleapis.com%2Fcss%3Ffamily%3DArchitects%2BDaughter;fontSize=24;" parent="1" vertex="1">
          <mxGeometry x="557" y="136" width="90" height="30" as="geometry" />
        </mxCell>
        <mxCell id="61" value="" style="curved=1;endArrow=classic;html=1;hachureGap=4;simplification=0;sketchStyle=rough;fontFamily=Architects Daughter;fontSource=https%3A%2F%2Ffonts.googleapis.com%2Fcss%3Ffamily%3DArchitects%2BDaughter;fontSize=36;shadow=0;flowAnimation=0;orthogonal=0;enumerate=0;orthogonalLoop=0;enumerateValue=5;sketch=1;curveFitting=1;jiggle=2;" parent="1" edge="1">
          <mxGeometry width="50" height="50" relative="1" as="geometry">
            <mxPoint x="183" y="173" as="sourcePoint" />
            <mxPoint x="678" y="194" as="targetPoint" />
            <Array as="points">
              <mxPoint x="233" y="93" />
              <mxPoint x="453" y="83" />
              <mxPoint x="663" y="103" />
            </Array>
          </mxGeometry>
        </mxCell>
        <mxCell id="62" value="&lt;span style=&quot;font-size: 36px;&quot;&gt;$$Y(\omega)=(f\circ X)(\omega))$$&lt;/span&gt;" style="text;html=1;strokeColor=none;fillColor=none;align=center;verticalAlign=middle;whiteSpace=wrap;rounded=0;dashed=1;comic=0;sketch=0;hachureGap=4;jiggle=0;curveFitting=1;sketchStyle=rough;fontFamily=Architects Daughter;fontSource=https%3A%2F%2Ffonts.googleapis.com%2Fcss%3Ffamily%3DArchitects%2BDaughter;fontSize=24;" parent="1" vertex="1">
          <mxGeometry x="411" y="42" width="90" height="30" as="geometry" />
        </mxCell>
        <mxCell id="64" value="" style="curved=1;endArrow=classic;html=1;hachureGap=4;simplification=0;sketchStyle=rough;fontFamily=Architects Daughter;fontSource=https%3A%2F%2Ffonts.googleapis.com%2Fcss%3Ffamily%3DArchitects%2BDaughter;fontSize=36;shadow=0;flowAnimation=0;orthogonal=0;enumerate=0;orthogonalLoop=0;enumerateValue=5;sketch=1;curveFitting=1;jiggle=2;entryX=1;entryY=0.5;entryDx=0;entryDy=0;" parent="1" target="32" edge="1">
          <mxGeometry width="50" height="50" relative="1" as="geometry">
            <mxPoint x="780" y="250" as="sourcePoint" />
            <mxPoint x="320.5" y="453" as="targetPoint" />
            <Array as="points">
              <mxPoint x="674" y="470" />
            </Array>
          </mxGeometry>
        </mxCell>
        <mxCell id="65" value="&lt;span style=&quot;&quot;&gt;$$\mu_Y=\mathbb{P}\circ X^{-1}\circ f^{-1}$$&lt;/span&gt;" style="text;html=1;strokeColor=none;fillColor=none;align=center;verticalAlign=middle;whiteSpace=wrap;rounded=0;comic=0;sketch=1;hachureGap=4;jiggle=0;curveFitting=1;sketchStyle=rough;fontFamily=Architects Daughter;fontSource=https%3A%2F%2Ffonts.googleapis.com%2Fcss%3Ffamily%3DArchitects%2BDaughter;fontSize=36;rotation=-25;" parent="1" vertex="1">
          <mxGeometry x="564" y="350" width="50" height="30" as="geometry" />
        </mxCell>
      </root>
    </mxGraphModel>
  </diagram>
  <diagram name="Independence" id="20Jb2HBP00Mj7Ok1G6nd">
    <mxGraphModel dx="1950" dy="2002" grid="1" gridSize="10" guides="1" tooltips="1" connect="1" arrows="1" fold="1" page="1" pageScale="1" pageWidth="850" pageHeight="1100" math="1" shadow="0">
      <root>
        <mxCell id="_FyYVtqcqDTxOJ_NGVRA-0" />
        <mxCell id="_FyYVtqcqDTxOJ_NGVRA-1" parent="_FyYVtqcqDTxOJ_NGVRA-0" />
        <mxCell id="_FyYVtqcqDTxOJ_NGVRA-2" value="" style="shape=dataStorage;whiteSpace=wrap;html=1;fixedSize=1;comic=0;sketch=1;hachureGap=4;jiggle=0;curveFitting=1;sketchStyle=rough;fontFamily=Architects Daughter;fontSource=https%3A%2F%2Ffonts.googleapis.com%2Fcss%3Ffamily%3DArchitects%2BDaughter;fontSize=36;size=100;" vertex="1" parent="_FyYVtqcqDTxOJ_NGVRA-1">
          <mxGeometry x="452" y="206" width="10" height="30" as="geometry" />
        </mxCell>
        <mxCell id="_FyYVtqcqDTxOJ_NGVRA-3" value="" style="shape=dataStorage;whiteSpace=wrap;html=1;fixedSize=1;comic=0;sketch=1;hachureGap=4;jiggle=0;curveFitting=1;sketchStyle=rough;fontFamily=Architects Daughter;fontSource=https%3A%2F%2Ffonts.googleapis.com%2Fcss%3Ffamily%3DArchitects%2BDaughter;fontSize=36;size=100;flipH=1;" vertex="1" parent="_FyYVtqcqDTxOJ_NGVRA-1">
          <mxGeometry x="482" y="206" width="10" height="30" as="geometry" />
        </mxCell>
        <mxCell id="_FyYVtqcqDTxOJ_NGVRA-4" value="" style="ellipse;whiteSpace=wrap;html=1;aspect=fixed;sketch=1;hachureGap=4;jiggle=2;curveFitting=1;fontFamily=Architects Daughter;fontSource=https%3A%2F%2Ffonts.googleapis.com%2Fcss%3Ffamily%3DArchitects%2BDaughter;fontSize=36;sketchStyle=rough;" vertex="1" parent="_FyYVtqcqDTxOJ_NGVRA-1">
          <mxGeometry x="13" y="103" width="207" height="207" as="geometry" />
        </mxCell>
        <mxCell id="_FyYVtqcqDTxOJ_NGVRA-5" value="$$\Omega$$" style="text;html=1;strokeColor=none;fillColor=none;align=center;verticalAlign=middle;whiteSpace=wrap;rounded=0;sketch=1;hachureGap=4;jiggle=2;curveFitting=1;fontFamily=Architects Daughter;fontSource=https%3A%2F%2Ffonts.googleapis.com%2Fcss%3Ffamily%3DArchitects%2BDaughter;fontSize=46;" vertex="1" parent="_FyYVtqcqDTxOJ_NGVRA-1">
          <mxGeometry x="53" y="118" width="90" height="42" as="geometry" />
        </mxCell>
        <mxCell id="_FyYVtqcqDTxOJ_NGVRA-6" value="" style="ellipse;whiteSpace=wrap;html=1;aspect=fixed;hachureGap=4;fontFamily=Architects Daughter;fontSource=https%3A%2F%2Ffonts.googleapis.com%2Fcss%3Ffamily%3DArchitects%2BDaughter;fontSize=36;dashed=1;" vertex="1" parent="_FyYVtqcqDTxOJ_NGVRA-1">
          <mxGeometry x="100" y="256" width="35" height="35" as="geometry" />
        </mxCell>
        <mxCell id="_FyYVtqcqDTxOJ_NGVRA-7" value="$$\mathbb{R}$$" style="text;html=1;strokeColor=none;fillColor=none;align=center;verticalAlign=middle;whiteSpace=wrap;rounded=0;sketch=1;hachureGap=4;jiggle=2;curveFitting=1;fontFamily=Architects Daughter;fontSource=https%3A%2F%2Ffonts.googleapis.com%2Fcss%3Ffamily%3DArchitects%2BDaughter;fontSize=36;" vertex="1" parent="_FyYVtqcqDTxOJ_NGVRA-1">
          <mxGeometry x="333" y="160" width="90" height="42" as="geometry" />
        </mxCell>
        <mxCell id="_FyYVtqcqDTxOJ_NGVRA-8" value="" style="endArrow=none;html=1;hachureGap=4;simplification=1;sketchStyle=rough;fontFamily=Architects Daughter;fontSource=https%3A%2F%2Ffonts.googleapis.com%2Fcss%3Ffamily%3DArchitects%2BDaughter;fontSize=36;" edge="1" parent="_FyYVtqcqDTxOJ_NGVRA-1" target="_FyYVtqcqDTxOJ_NGVRA-9">
          <mxGeometry width="50" height="50" relative="1" as="geometry">
            <mxPoint x="333" y="220" as="sourcePoint" />
            <mxPoint x="523" y="220" as="targetPoint" />
          </mxGeometry>
        </mxCell>
        <mxCell id="_FyYVtqcqDTxOJ_NGVRA-9" value="" style="shape=waypoint;sketch=0;size=6;pointerEvents=1;points=[];fillColor=none;resizable=0;rotatable=0;perimeter=centerPerimeter;snapToPoint=1;comic=0;hachureGap=4;jiggle=0;curveFitting=1;sketchStyle=rough;fontFamily=Architects Daughter;fontSource=https%3A%2F%2Ffonts.googleapis.com%2Fcss%3Ffamily%3DArchitects%2BDaughter;fontSize=36;" vertex="1" parent="_FyYVtqcqDTxOJ_NGVRA-1">
          <mxGeometry x="368" y="210" width="20" height="20" as="geometry" />
        </mxCell>
        <mxCell id="_FyYVtqcqDTxOJ_NGVRA-10" value="" style="curved=1;endArrow=classic;html=1;sketch=1;hachureGap=4;jiggle=3;curveFitting=1;simplification=0;sketchStyle=rough;fontFamily=Architects Daughter;fontSource=https%3A%2F%2Ffonts.googleapis.com%2Fcss%3Ffamily%3DArchitects%2BDaughter;fontSize=36;shadow=0;flowAnimation=0;orthogonal=0;enumerate=0;orthogonalLoop=0;enumerateValue=5;" edge="1" parent="_FyYVtqcqDTxOJ_NGVRA-1" source="_FyYVtqcqDTxOJ_NGVRA-15">
          <mxGeometry width="50" height="50" relative="1" as="geometry">
            <mxPoint x="173" y="130" as="sourcePoint" />
            <mxPoint x="333" y="210" as="targetPoint" />
            <Array as="points">
              <mxPoint x="263" y="140" />
            </Array>
          </mxGeometry>
        </mxCell>
        <mxCell id="_FyYVtqcqDTxOJ_NGVRA-11" value="&lt;span style=&quot;&quot;&gt;$$\mathbb{P}$$&lt;/span&gt;" style="text;html=1;strokeColor=none;fillColor=none;align=center;verticalAlign=middle;whiteSpace=wrap;rounded=0;comic=0;sketch=1;hachureGap=4;jiggle=0;curveFitting=1;sketchStyle=rough;fontFamily=Architects Daughter;fontSource=https%3A%2F%2Ffonts.googleapis.com%2Fcss%3Ffamily%3DArchitects%2BDaughter;fontSize=36;" vertex="1" parent="_FyYVtqcqDTxOJ_NGVRA-1">
          <mxGeometry x="123" y="393" width="50" height="30" as="geometry" />
        </mxCell>
        <mxCell id="_FyYVtqcqDTxOJ_NGVRA-12" value="$$0$$" style="text;html=1;strokeColor=none;fillColor=none;align=center;verticalAlign=middle;whiteSpace=wrap;rounded=0;comic=0;sketch=1;hachureGap=4;jiggle=0;curveFitting=1;sketchStyle=rough;fontFamily=Architects Daughter;fontSource=https%3A%2F%2Ffonts.googleapis.com%2Fcss%3Ffamily%3DArchitects%2BDaughter;fontSize=36;" vertex="1" parent="_FyYVtqcqDTxOJ_NGVRA-1">
          <mxGeometry x="363" y="230" width="30" height="30" as="geometry" />
        </mxCell>
        <mxCell id="_FyYVtqcqDTxOJ_NGVRA-13" value="" style="endArrow=none;html=1;hachureGap=4;simplification=1;sketchStyle=rough;fontFamily=Architects Daughter;fontSource=https%3A%2F%2Ffonts.googleapis.com%2Fcss%3Ffamily%3DArchitects%2BDaughter;fontSize=36;startArrow=none;exitX=1.19;exitY=0.26;exitDx=0;exitDy=0;exitPerimeter=0;" edge="1" parent="_FyYVtqcqDTxOJ_NGVRA-1" source="_FyYVtqcqDTxOJ_NGVRA-9">
          <mxGeometry width="50" height="50" relative="1" as="geometry">
            <mxPoint x="453" y="220" as="sourcePoint" />
            <mxPoint x="523" y="220" as="targetPoint" />
          </mxGeometry>
        </mxCell>
        <mxCell id="_FyYVtqcqDTxOJ_NGVRA-14" value="$$[0,1]$$" style="text;html=1;strokeColor=none;fillColor=none;align=center;verticalAlign=middle;whiteSpace=wrap;rounded=0;dashed=1;comic=0;sketch=0;hachureGap=4;jiggle=0;curveFitting=1;sketchStyle=rough;fontFamily=Architects Daughter;fontSource=https%3A%2F%2Ffonts.googleapis.com%2Fcss%3Ffamily%3DArchitects%2BDaughter;fontSize=36;" vertex="1" parent="_FyYVtqcqDTxOJ_NGVRA-1">
          <mxGeometry x="243" y="443" width="90" height="30" as="geometry" />
        </mxCell>
        <mxCell id="_FyYVtqcqDTxOJ_NGVRA-15" value="" style="shape=waypoint;sketch=0;size=6;pointerEvents=1;points=[];fillColor=none;resizable=0;rotatable=0;perimeter=centerPerimeter;snapToPoint=1;dashed=1;comic=0;hachureGap=4;jiggle=0;curveFitting=1;sketchStyle=rough;fontFamily=Architects Daughter;fontSource=https%3A%2F%2Ffonts.googleapis.com%2Fcss%3Ffamily%3DArchitects%2BDaughter;fontSize=36;" vertex="1" parent="_FyYVtqcqDTxOJ_NGVRA-1">
          <mxGeometry x="173" y="166" width="20" height="20" as="geometry" />
        </mxCell>
        <mxCell id="_FyYVtqcqDTxOJ_NGVRA-16" value="$$\omega$$" style="text;html=1;strokeColor=none;fillColor=none;align=center;verticalAlign=middle;whiteSpace=wrap;rounded=0;dashed=1;comic=0;sketch=0;hachureGap=4;jiggle=0;curveFitting=1;sketchStyle=rough;fontFamily=Architects Daughter;fontSource=https%3A%2F%2Ffonts.googleapis.com%2Fcss%3Ffamily%3DArchitects%2BDaughter;fontSize=24;" vertex="1" parent="_FyYVtqcqDTxOJ_NGVRA-1">
          <mxGeometry x="143" y="172" width="50" height="30" as="geometry" />
        </mxCell>
        <mxCell id="_FyYVtqcqDTxOJ_NGVRA-17" value="&lt;span style=&quot;font-size: 36px;&quot;&gt;$$X(\omega)$$&lt;/span&gt;" style="text;html=1;strokeColor=none;fillColor=none;align=center;verticalAlign=middle;whiteSpace=wrap;rounded=0;dashed=1;comic=0;sketch=0;hachureGap=4;jiggle=0;curveFitting=1;sketchStyle=rough;fontFamily=Architects Daughter;fontSource=https%3A%2F%2Ffonts.googleapis.com%2Fcss%3Ffamily%3DArchitects%2BDaughter;fontSize=24;" vertex="1" parent="_FyYVtqcqDTxOJ_NGVRA-1">
          <mxGeometry x="253" y="130" width="90" height="30" as="geometry" />
        </mxCell>
        <mxCell id="_FyYVtqcqDTxOJ_NGVRA-18" value="" style="curved=1;endArrow=classic;html=1;hachureGap=4;simplification=0;sketchStyle=rough;fontFamily=Architects Daughter;fontSource=https%3A%2F%2Ffonts.googleapis.com%2Fcss%3Ffamily%3DArchitects%2BDaughter;fontSize=36;shadow=0;flowAnimation=0;orthogonal=0;enumerate=0;orthogonalLoop=0;enumerateValue=5;sketch=1;curveFitting=1;jiggle=2;" edge="1" parent="_FyYVtqcqDTxOJ_NGVRA-1">
          <mxGeometry width="50" height="50" relative="1" as="geometry">
            <mxPoint x="463" y="250" as="sourcePoint" />
            <mxPoint x="143" y="290" as="targetPoint" />
            <Array as="points">
              <mxPoint x="333" y="350" />
            </Array>
          </mxGeometry>
        </mxCell>
        <mxCell id="_FyYVtqcqDTxOJ_NGVRA-19" value="&lt;span style=&quot;font-size: 36px;&quot;&gt;$$X^{-1}$$&lt;/span&gt;" style="text;html=1;strokeColor=none;fillColor=none;align=center;verticalAlign=middle;whiteSpace=wrap;rounded=0;dashed=1;comic=0;sketch=0;hachureGap=4;jiggle=0;curveFitting=1;sketchStyle=rough;fontFamily=Architects Daughter;fontSource=https%3A%2F%2Ffonts.googleapis.com%2Fcss%3Ffamily%3DArchitects%2BDaughter;fontSize=24;" vertex="1" parent="_FyYVtqcqDTxOJ_NGVRA-1">
          <mxGeometry x="253" y="270" width="90" height="30" as="geometry" />
        </mxCell>
        <mxCell id="_FyYVtqcqDTxOJ_NGVRA-20" value="$$G\in \mathcal{B}(\mathbb{R})$$" style="text;html=1;strokeColor=none;fillColor=none;align=center;verticalAlign=middle;whiteSpace=wrap;rounded=0;dashed=1;comic=0;sketch=0;hachureGap=4;jiggle=0;curveFitting=1;sketchStyle=rough;fontFamily=Architects Daughter;fontSource=https%3A%2F%2Ffonts.googleapis.com%2Fcss%3Ffamily%3DArchitects%2BDaughter;fontSize=24;" vertex="1" parent="_FyYVtqcqDTxOJ_NGVRA-1">
          <mxGeometry x="452" y="172" width="60" height="30" as="geometry" />
        </mxCell>
        <mxCell id="_FyYVtqcqDTxOJ_NGVRA-21" value="$$X^{-1}[G]\in\mathcal{F}$$" style="text;html=1;strokeColor=none;fillColor=none;align=center;verticalAlign=middle;whiteSpace=wrap;rounded=0;dashed=1;comic=0;sketch=0;hachureGap=4;jiggle=0;curveFitting=1;sketchStyle=rough;fontFamily=Architects Daughter;fontSource=https%3A%2F%2Ffonts.googleapis.com%2Fcss%3Ffamily%3DArchitects%2BDaughter;fontSize=24;" vertex="1" parent="_FyYVtqcqDTxOJ_NGVRA-1">
          <mxGeometry x="93" y="223" width="58" height="30" as="geometry" />
        </mxCell>
        <mxCell id="_FyYVtqcqDTxOJ_NGVRA-22" value="" style="curved=1;endArrow=classic;html=1;hachureGap=4;simplification=0;sketchStyle=rough;fontFamily=Architects Daughter;fontSource=https%3A%2F%2Ffonts.googleapis.com%2Fcss%3Ffamily%3DArchitects%2BDaughter;fontSize=36;shadow=0;flowAnimation=0;orthogonal=0;enumerate=0;orthogonalLoop=0;enumerateValue=5;sketch=1;curveFitting=1;jiggle=2;" edge="1" parent="_FyYVtqcqDTxOJ_NGVRA-1">
          <mxGeometry width="50" height="50" relative="1" as="geometry">
            <mxPoint x="473" y="253" as="sourcePoint" />
            <mxPoint x="334" y="440" as="targetPoint" />
            <Array as="points">
              <mxPoint x="443" y="360" />
            </Array>
          </mxGeometry>
        </mxCell>
        <mxCell id="_FyYVtqcqDTxOJ_NGVRA-23" value="&lt;span style=&quot;&quot;&gt;$$\mu_X=\mathbb{P}\circ X^{-1}$$&lt;/span&gt;" style="text;html=1;strokeColor=none;fillColor=none;align=center;verticalAlign=middle;whiteSpace=wrap;rounded=0;comic=0;sketch=1;hachureGap=4;jiggle=0;curveFitting=1;sketchStyle=rough;fontFamily=Architects Daughter;fontSource=https%3A%2F%2Ffonts.googleapis.com%2Fcss%3Ffamily%3DArchitects%2BDaughter;fontSize=36;rotation=-45;" vertex="1" parent="_FyYVtqcqDTxOJ_NGVRA-1">
          <mxGeometry x="363" y="340" width="50" height="30" as="geometry" />
        </mxCell>
        <mxCell id="_FyYVtqcqDTxOJ_NGVRA-24" value="" style="curved=1;endArrow=classic;html=1;hachureGap=4;simplification=0;sketchStyle=rough;fontFamily=Architects Daughter;fontSource=https%3A%2F%2Ffonts.googleapis.com%2Fcss%3Ffamily%3DArchitects%2BDaughter;fontSize=36;shadow=0;flowAnimation=0;orthogonal=0;enumerate=0;orthogonalLoop=0;enumerateValue=5;sketch=1;curveFitting=1;jiggle=2;" edge="1" parent="_FyYVtqcqDTxOJ_NGVRA-1">
          <mxGeometry width="50" height="50" relative="1" as="geometry">
            <mxPoint x="123" y="303" as="sourcePoint" />
            <mxPoint x="234" y="440" as="targetPoint" />
            <Array as="points">
              <mxPoint x="173" y="410" />
            </Array>
          </mxGeometry>
        </mxCell>
        <mxCell id="_FyYVtqcqDTxOJ_NGVRA-25" value="" style="shape=dataStorage;whiteSpace=wrap;html=1;fixedSize=1;comic=0;sketch=1;hachureGap=4;jiggle=0;curveFitting=1;sketchStyle=rough;fontFamily=Architects Daughter;fontSource=https%3A%2F%2Ffonts.googleapis.com%2Fcss%3Ffamily%3DArchitects%2BDaughter;fontSize=36;size=100;" vertex="1" parent="_FyYVtqcqDTxOJ_NGVRA-1">
          <mxGeometry x="758" y="205" width="10" height="30" as="geometry" />
        </mxCell>
        <mxCell id="_FyYVtqcqDTxOJ_NGVRA-26" value="" style="shape=dataStorage;whiteSpace=wrap;html=1;fixedSize=1;comic=0;sketch=1;hachureGap=4;jiggle=0;curveFitting=1;sketchStyle=rough;fontFamily=Architects Daughter;fontSource=https%3A%2F%2Ffonts.googleapis.com%2Fcss%3Ffamily%3DArchitects%2BDaughter;fontSize=36;size=100;flipH=1;" vertex="1" parent="_FyYVtqcqDTxOJ_NGVRA-1">
          <mxGeometry x="788" y="205" width="10" height="30" as="geometry" />
        </mxCell>
        <mxCell id="_FyYVtqcqDTxOJ_NGVRA-27" value="$$\mathbb{R}$$" style="text;html=1;strokeColor=none;fillColor=none;align=center;verticalAlign=middle;whiteSpace=wrap;rounded=0;sketch=1;hachureGap=4;jiggle=2;curveFitting=1;fontFamily=Architects Daughter;fontSource=https%3A%2F%2Ffonts.googleapis.com%2Fcss%3Ffamily%3DArchitects%2BDaughter;fontSize=36;" vertex="1" parent="_FyYVtqcqDTxOJ_NGVRA-1">
          <mxGeometry x="668" y="160" width="90" height="42" as="geometry" />
        </mxCell>
        <mxCell id="_FyYVtqcqDTxOJ_NGVRA-28" value="" style="endArrow=none;html=1;hachureGap=4;simplification=1;sketchStyle=rough;fontFamily=Architects Daughter;fontSource=https%3A%2F%2Ffonts.googleapis.com%2Fcss%3Ffamily%3DArchitects%2BDaughter;fontSize=36;" edge="1" parent="_FyYVtqcqDTxOJ_NGVRA-1" target="_FyYVtqcqDTxOJ_NGVRA-29">
          <mxGeometry width="50" height="50" relative="1" as="geometry">
            <mxPoint x="673" y="220" as="sourcePoint" />
            <mxPoint x="863" y="220" as="targetPoint" />
          </mxGeometry>
        </mxCell>
        <mxCell id="_FyYVtqcqDTxOJ_NGVRA-29" value="" style="shape=waypoint;sketch=0;size=6;pointerEvents=1;points=[];fillColor=none;resizable=0;rotatable=0;perimeter=centerPerimeter;snapToPoint=1;comic=0;hachureGap=4;jiggle=0;curveFitting=1;sketchStyle=rough;fontFamily=Architects Daughter;fontSource=https%3A%2F%2Ffonts.googleapis.com%2Fcss%3Ffamily%3DArchitects%2BDaughter;fontSize=36;" vertex="1" parent="_FyYVtqcqDTxOJ_NGVRA-1">
          <mxGeometry x="703" y="210" width="20" height="20" as="geometry" />
        </mxCell>
        <mxCell id="_FyYVtqcqDTxOJ_NGVRA-30" value="$$0$$" style="text;html=1;strokeColor=none;fillColor=none;align=center;verticalAlign=middle;whiteSpace=wrap;rounded=0;comic=0;sketch=1;hachureGap=4;jiggle=0;curveFitting=1;sketchStyle=rough;fontFamily=Architects Daughter;fontSource=https%3A%2F%2Ffonts.googleapis.com%2Fcss%3Ffamily%3DArchitects%2BDaughter;fontSize=36;" vertex="1" parent="_FyYVtqcqDTxOJ_NGVRA-1">
          <mxGeometry x="698" y="230" width="30" height="30" as="geometry" />
        </mxCell>
        <mxCell id="_FyYVtqcqDTxOJ_NGVRA-31" value="" style="endArrow=none;html=1;hachureGap=4;simplification=1;sketchStyle=rough;fontFamily=Architects Daughter;fontSource=https%3A%2F%2Ffonts.googleapis.com%2Fcss%3Ffamily%3DArchitects%2BDaughter;fontSize=36;startArrow=none;exitX=1.19;exitY=0.26;exitDx=0;exitDy=0;exitPerimeter=0;entryX=1;entryY=1.6;entryDx=0;entryDy=0;entryPerimeter=0;" edge="1" parent="_FyYVtqcqDTxOJ_NGVRA-1" source="_FyYVtqcqDTxOJ_NGVRA-29" target="_FyYVtqcqDTxOJ_NGVRA-32">
          <mxGeometry width="50" height="50" relative="1" as="geometry">
            <mxPoint x="787" y="220" as="sourcePoint" />
            <mxPoint x="857" y="220" as="targetPoint" />
          </mxGeometry>
        </mxCell>
        <mxCell id="_FyYVtqcqDTxOJ_NGVRA-32" value="$$G\in \mathcal{B}(\mathbb{R})$$" style="text;html=1;strokeColor=none;fillColor=none;align=center;verticalAlign=middle;whiteSpace=wrap;rounded=0;dashed=1;comic=0;sketch=0;hachureGap=4;jiggle=0;curveFitting=1;sketchStyle=rough;fontFamily=Architects Daughter;fontSource=https%3A%2F%2Ffonts.googleapis.com%2Fcss%3Ffamily%3DArchitects%2BDaughter;fontSize=24;" vertex="1" parent="_FyYVtqcqDTxOJ_NGVRA-1">
          <mxGeometry x="768" y="172" width="60" height="30" as="geometry" />
        </mxCell>
        <mxCell id="_FyYVtqcqDTxOJ_NGVRA-33" value="" style="curved=1;endArrow=classic;html=1;sketch=1;hachureGap=4;jiggle=3;curveFitting=1;simplification=0;sketchStyle=rough;fontFamily=Architects Daughter;fontSource=https%3A%2F%2Ffonts.googleapis.com%2Fcss%3Ffamily%3DArchitects%2BDaughter;fontSize=36;shadow=0;flowAnimation=0;orthogonal=0;enumerate=0;orthogonalLoop=0;enumerateValue=5;" edge="1" parent="_FyYVtqcqDTxOJ_NGVRA-1">
          <mxGeometry width="50" height="50" relative="1" as="geometry">
            <mxPoint x="541" y="216" as="sourcePoint" />
            <mxPoint x="673" y="213" as="targetPoint" />
            <Array as="points">
              <mxPoint x="609" y="156" />
            </Array>
          </mxGeometry>
        </mxCell>
        <mxCell id="_FyYVtqcqDTxOJ_NGVRA-34" value="&lt;span style=&quot;font-size: 36px;&quot;&gt;$$f(\cdot)$$&lt;/span&gt;" style="text;html=1;strokeColor=none;fillColor=none;align=center;verticalAlign=middle;whiteSpace=wrap;rounded=0;dashed=1;comic=0;sketch=0;hachureGap=4;jiggle=0;curveFitting=1;sketchStyle=rough;fontFamily=Architects Daughter;fontSource=https%3A%2F%2Ffonts.googleapis.com%2Fcss%3Ffamily%3DArchitects%2BDaughter;fontSize=24;" vertex="1" parent="_FyYVtqcqDTxOJ_NGVRA-1">
          <mxGeometry x="557" y="136" width="90" height="30" as="geometry" />
        </mxCell>
        <mxCell id="_FyYVtqcqDTxOJ_NGVRA-35" value="" style="curved=1;endArrow=classic;html=1;hachureGap=4;simplification=0;sketchStyle=rough;fontFamily=Architects Daughter;fontSource=https%3A%2F%2Ffonts.googleapis.com%2Fcss%3Ffamily%3DArchitects%2BDaughter;fontSize=36;shadow=0;flowAnimation=0;orthogonal=0;enumerate=0;orthogonalLoop=0;enumerateValue=5;sketch=1;curveFitting=1;jiggle=2;" edge="1" parent="_FyYVtqcqDTxOJ_NGVRA-1">
          <mxGeometry width="50" height="50" relative="1" as="geometry">
            <mxPoint x="183" y="173" as="sourcePoint" />
            <mxPoint x="678" y="194" as="targetPoint" />
            <Array as="points">
              <mxPoint x="233" y="93" />
              <mxPoint x="453" y="83" />
              <mxPoint x="663" y="103" />
            </Array>
          </mxGeometry>
        </mxCell>
        <mxCell id="_FyYVtqcqDTxOJ_NGVRA-36" value="&lt;span style=&quot;font-size: 36px;&quot;&gt;$$Y(\omega)=(f\circ X)(\omega))$$&lt;/span&gt;" style="text;html=1;strokeColor=none;fillColor=none;align=center;verticalAlign=middle;whiteSpace=wrap;rounded=0;dashed=1;comic=0;sketch=0;hachureGap=4;jiggle=0;curveFitting=1;sketchStyle=rough;fontFamily=Architects Daughter;fontSource=https%3A%2F%2Ffonts.googleapis.com%2Fcss%3Ffamily%3DArchitects%2BDaughter;fontSize=24;" vertex="1" parent="_FyYVtqcqDTxOJ_NGVRA-1">
          <mxGeometry x="411" y="42" width="90" height="30" as="geometry" />
        </mxCell>
        <mxCell id="_FyYVtqcqDTxOJ_NGVRA-37" value="" style="curved=1;endArrow=classic;html=1;hachureGap=4;simplification=0;sketchStyle=rough;fontFamily=Architects Daughter;fontSource=https%3A%2F%2Ffonts.googleapis.com%2Fcss%3Ffamily%3DArchitects%2BDaughter;fontSize=36;shadow=0;flowAnimation=0;orthogonal=0;enumerate=0;orthogonalLoop=0;enumerateValue=5;sketch=1;curveFitting=1;jiggle=2;entryX=1;entryY=0.5;entryDx=0;entryDy=0;" edge="1" parent="_FyYVtqcqDTxOJ_NGVRA-1" target="_FyYVtqcqDTxOJ_NGVRA-14">
          <mxGeometry width="50" height="50" relative="1" as="geometry">
            <mxPoint x="780" y="250" as="sourcePoint" />
            <mxPoint x="320.5" y="453" as="targetPoint" />
            <Array as="points">
              <mxPoint x="674" y="470" />
            </Array>
          </mxGeometry>
        </mxCell>
        <mxCell id="_FyYVtqcqDTxOJ_NGVRA-38" value="&lt;span style=&quot;&quot;&gt;$$\mu_Y=\mathbb{P}\circ X^{-1}\circ f^{-1}$$&lt;/span&gt;" style="text;html=1;strokeColor=none;fillColor=none;align=center;verticalAlign=middle;whiteSpace=wrap;rounded=0;comic=0;sketch=1;hachureGap=4;jiggle=0;curveFitting=1;sketchStyle=rough;fontFamily=Architects Daughter;fontSource=https%3A%2F%2Ffonts.googleapis.com%2Fcss%3Ffamily%3DArchitects%2BDaughter;fontSize=36;rotation=-25;" vertex="1" parent="_FyYVtqcqDTxOJ_NGVRA-1">
          <mxGeometry x="564" y="350" width="50" height="30" as="geometry" />
        </mxCell>
        <mxCell id="PDumEZwAvvH3lzOu8zZj-0" value="FIXME DO SOMETHING HERE!!!" style="text;html=1;align=center;verticalAlign=middle;whiteSpace=wrap;rounded=0;fontFamily=Architects Daughter;fontSource=https%3A%2F%2Ffonts.googleapis.com%2Fcss%3Ffamily%3DArchitects%2BDaughter;fontSize=60;" vertex="1" parent="_FyYVtqcqDTxOJ_NGVRA-1">
          <mxGeometry x="-34" y="-50" width="919" height="30" as="geometry" />
        </mxCell>
      </root>
    </mxGraphModel>
  </diagram>
</mxfile>
